Sherlock Holmes (2009) BDRip XviD-MAX (BEST QUALITY)  
http://torrents.thepiratebay.org/5429274/Sherlock_Holmes_(2009)_BDRip_XviD-MAX.5429274.TPB.torrent

Sherlock Holmes (2009) DVDSCR XviD-MAX 

Format                           : AVI 
Format/Info                      : Audio Video Interleave 
File size                        : 1.36 GiB
Duration                         : 2h 8mn 
Overall bit rate                 : 1 517 Kbps
Writing application              : VirtualDubMod 1.5.10.2 (build 2542/release)
Writing library                  : VirtualDubMod build 2542/release
Original source form             : MAX TORRENTZ
Copyright                        : SIGISMUNT

Video
Format                           : xvid
Codec ID                         : xvid
Duration                         : 2h 8mn
Bit rate                         : 1 376 Kbps
Width                            : 704 pixels
Height                           : 384 pixels
Display aspect ratio             : 16:9
Frame rate                       : 23.976 fps
Resolution                       : 24 bits
Bits/(Pixel*Frame)               : 0.212
Stream size                      : 1.23 GiB (91%)

Audio
ID                               : 1
Format                           : MPEG Audio
Format version                   : Version 1
Format profile                   : Layer 3
Codec ID                         : 55
Codec ID/Hint                    : MP3
Duration                         : 2h 8mn
Bit rate mode                    : Constant
Bit rate                         : 128 Kbps
Channel(s)                       : 2 channels
Sampling rate                    : 48.0 KHz
Resolution                       : 16 bits
Stream size                      : 118 MiB (8%)
Alignment                        : Aligned on interleaves
Interleave, duration             : 24 ms (0.58 video frame)
Interleave, preload duration     : 504 ms 
http://www.imdb.com/title/tt0988045/

Screens: 
http://www.postimg.com/image/11000/10278.jpg 
http://www.postimg.com/image/11000/10279.jpg 
http://www.postimg.com/image/11000/10280.jpg 
http://www.postimg.com/image/11000/10281.jpg

ScreenCaps: 
http://www.postimg.com/image/11000/10282.jpg

Sherlock Holmes (2009) DVDSCR XviD-MAX Torrent Free Download 
http://thepiratebay.org/user/extremezone/0/7

How To Get Your Maxspeed (uTorrent)

Torrent Client - Preferences - Bandwidth - Number of connections - Set aprox. 500 for each 
Torrent Client - Preferences - BiTorrent - Protocol Encryption - Forced
Bandwidth Allocation - High (Set download/upload limit - Unlimited)
Stop Other Active Torrents - Start downloading and wait for connections
Enjoy and Seed for at least 1:1 ratio. Also please spread the link where you found this torrent to your friends.